:SAMPLES-PER-SECOND 30
:FULLY-SPECIFIED
:DEGREES
321
root  -7.11913 37.283 8.39256 -174.155 -8.55611 175.113
RightUpLeg  3.28759 -15.4513 -17.768
RightLeg  28.293 -14.5883 -8.54749
RightFoot  -17.573 1.33063 26.1837
RightToes  2.32829e-010 0 -3.6325e-017
Spine  9.12519 4.67689 10.5188
Spine1  19.5291 8.62445 -7.72121
HEad  -9.72898 14.2048 -2.01475
LeftShoulder1  0.308223 2.01402 -13.7245
LeftArm  26.8298 -6.24264 -50.268
LeftForeArm  110.121 -78.9558 -112.215
LeftHand  -2.07354 -5.19949 22.755
RightShoulder  0.863241 1.68583 8.92769
RightArm  -40.0836 -35.5389 22.9003
RightForeArm  -16.9611 14.142 4.69434
RightHand  -2.77515 6.21446 -27.5479
LeftUpLeg  -33.3332 -19.0373 6.54755
LeftLeg  12.4306 -23.0697 -3.82872
LeftFoot  5.35062 3.39279 -23.0922
LeftToes  -5.54824e-011 -8.71001e-011 8.3852e-012
322
root  -7.22931 37.189 8.46652 -174.894 -10.6862 173.221
RightUpLeg  2.55633 -8.68467 -17.5337
RightLeg  32.4764 -10.5072 -7.36417
RightFoot  -18.5115 1.58438 26.8524
RightToes  2.32829e-010 0 -3.6325e-017
Spine  9.1528 2.55521 14.2412
Spine1  19.0374 10.8188 -19.4964
HEad  -0.467427 14.212 -0.474517
LeftShoulder1  -0.210588 4.61551 -11.5294
LeftArm  19.5908 4.02521 -40.6473
LeftForeArm  130.614 -75.3791 -135.752
LeftHand  -2.11791 -4.80044 24.1132
RightShoulder  0.196318 -0.541393 -2.04355
RightArm  -36.6499 -15.0111 18.4638
RightForeArm  -11.7853 18.7588 5.54631
RightHand  -2.76074 6.59475 -26.5807
LeftUpLeg  -31.8428 -17.4598 1.89168
LeftLeg  12.4611 -20.2605 -3.02019
LeftFoot  7.24245 3.20203 -19.6338
LeftToes  -5.54824e-011 -8.71001e-011 8.3852e-012
323
root  -7.29603 36.8522 8.53526 -175.964 -9.11578 170.148
RightUpLeg  0.500331 -4.9433 -20.8675
RightLeg  38.5144 -8.88305 -7.81174
RightFoot  -18.8617 1.79044 28.6359
RightToes  2.32829e-010 0 -3.6325e-017
Spine  11.4305 1.30375 16.0266
Spine1  16.0498 12.9097 -29.8204
HEad  7.30258 16.7035 -4.00091
LeftShoulder1  -0.297263 5.21636 -9.69927
LeftArm  14.8209 15.8163 -35.533
LeftForeArm  136.945 -71.8997 -145.637
LeftHand  -1.88836 -3.74011 23.954
RightShoulder  -0.0177017 -1.90079 -10.4851
RightArm  -32.9563 8.34496 16.4609
RightForeArm  -9.07826 28.0917 6.49583
RightHand  -2.77536 6.71514 -26.4671
LeftUpLeg  -31.7554 -18.1816 -0.635459
LeftLeg  15.1177 -15.931 -3.78915
LeftFoot  6.69048 2.7587 -17.5235
LeftToes  -5.54824e-011 -8.71001e-011 8.3852e-012
324
root  -7.22858 36.3683 8.45836 -176.994 -6.8489 165.987
RightUpLeg  -1.64171 -3.02686 -26.1227
RightLeg  44.1374 -9.23235 -9.75714
RightFoot  -20.1547 2.22522 30.0174
RightToes  2.32829e-010 0 -3.6325e-017
Spine  15.7272 2.33394 18.8266
Spine1  13.0019 17.3433 -39.5975
HEad  12.5144 18.3294 -6.04149
LeftShoulder1  -0.060753 3.89401 -8.28773
LeftArm  15.1805 18.5698 -35.1566
LeftForeArm  139.399 -70.7823 -147.955
LeftHand  -1.69734 -3.49845 22.2147
RightShoulder  -0.108648 -1.72065 -16.6709
RightArm  -37.2791 19.8983 9.38044
RightForeArm  -0.0307203 41.8431 10.0955
RightHand  -2.68694 6.85068 -25.3744
LeftUpLeg  -31.7732 -16.9919 -4.5595
LeftLeg  18.4702 -13.9601 -4.82615
LeftFoot  5.30189 2.49697 -17.1897
LeftToes  -5.54824e-011 -8.71001e-011 8.3852e-012
325
root  -7.01326 35.7573 8.24556 -177.632 -7.96848 162.354
RightUpLeg  -1.98718 -3.7537 -30.3034
RightLeg  48.9109 -9.22703 -11.4739
RightFoot  -22.6544 2.96768 30.8114
RightToes  2.32829e-010 0 -3.6325e-017
Spine  19.8861 3.94803 21.5217
Spine1  12.0017 21.7941 -45.7132
HEad  15.5903 18.9277 -3.69629
LeftShoulder1  0.136322 2.72428 -9.87535
LeftArm  18.5044 13.5704 -35.6048
LeftForeArm  143.261 -70.2635 -149.338
LeftHand  -1.71274 -4.24581 20.7285
RightShoulder  -0.193632 -1.39291 -20.68
RightArm  -45.5198 24.4959 1.32169
RightForeArm  9.41754 54.1503 14.8621
RightHand  -2.41874 6.91269 -22.8514
LeftUpLeg  -32.1789 -15.1731 -9.2168
LeftLeg  22.7346 -14.3487 -6.20709
LeftFoot  3.66125 2.34799 -17.8815
LeftToes  -5.54824e-011 -8.71001e-011 8.3852e-012
326
root  -6.70788 35.0644 8.00614 -177.79 -13.1669 160.816
RightUpLeg  0.0409193 -6.41773 -31.2096
RightLeg  53.3377 -9.35963 -13.6082
RightFoot  -24.7029 3.71415 32.339
RightToes  2.32829e-010 0 -3.6325e-017
Spine  21.56 4.49211 22.1533
Spine1  13.1211 23.4907 -46.2423
HEad  15.8258 18.7399 0.323673
LeftShoulder1  0.287218 2.19377 -15.1001
LeftArm  20.0092 10.2032 -35.668
LeftForeArm  146.597 -69.4694 -151.023
LeftHand  -1.75969 -4.92306 19.9244
RightShoulder  -0.0773178 -2.74111 -22.2375
RightArm  -53.3827 30.7666 0.753235
RightForeArm  18.8135 63.1966 21.1059
RightHand  -2.35391 7.23159 -21.7177
LeftUpLeg  -33.4688 -15.8139 -11.7382
LeftLeg  28.2723 -15.6658 -8.64839
LeftFoot  1.6854 2.16636 -18.919
LeftToes  -5.54824e-011 -8.71001e-011 8.3852e-012
327
root  -6.40543 34.4584 7.85138 -178.128 -18.7653 161.211
RightUpLeg  2.51057 -8.77447 -29.4151
RightLeg  57.0478 -10.3548 -17.062
RightFoot  -25.3833 4.20269 34.5471
RightToes  2.32829e-010 0 -3.6325e-017
Spine  21.132 4.34829 20.7864
Spine1  15.5172 23.2719 -43.7412
HEad  13.0738 17.0356 2.40226
LeftShoulder1  0.430291 1.88045 -20.0326
LeftArm  17.4189 11.3308 -37.7166
LeftForeArm  145.636 -69.7128 -150.514
LeftHand  -1.72043 -4.73912 19.8452
RightShoulder  0.130758 -4.682 -21.8509
RightArm  -55.9331 36.6334 7.51351
RightForeArm  29.6433 70.5348 30.4821
RightHand  -2.42994 7.51946 -21.9161
LeftUpLeg  -34.9281 -17.7087 -11.7743
LeftLeg  33.417 -17.1716 -11.5136
LeftFoot  -0.198922 2.00007 -20.3154
LeftToes  -5.54824e-011 -8.71001e-011 8.3852e-012
328
root  -6.19252 34.1637 7.8502 -178.551 -20.9271 162.176
RightUpLeg  3.1623 -9.21947 -27.2602
RightLeg  58.8746 -11.2713 -19.6982
RightFoot  -25.5953 4.47207 36.0286
RightToes  2.32829e-010 0 -3.6325e-017
Spine  20.2927 4.45959 19.257
Spine1  17.7667 23.394 -42.184
HEad  9.22431 13.9475 2.29624
LeftShoulder1  0.569882 1.4803 -21.8074
LeftArm  13.1051 12.4237 -41.6686
LeftForeArm  139.754 -71.4674 -146.737
LeftHand  -1.65523 -3.95129 20.6594
RightShoulder  0.137465 -4.99547 -19.42
RightArm  -51.5568 38.009 15.2909
RightForeArm  40.9707 75.0283 41.9728
RightHand  -2.33982 7.28189 -21.5068
LeftUpLeg  -35.8641 -18.587 -10.6405
LeftLeg  35.4688 -17.6155 -12.7134
LeftFoot  -1.19602 2.03086 -22.525
LeftToes  -5.54824e-011 -8.71001e-011 8.3852e-012
329
root  -6.07245 34.3227 8.05285 -178.508 -19.1092 162.873
RightUpLeg  1.87811 -7.60658 -26.0068
RightLeg  57.8863 -11.407 -19.22
RightFoot  -26.0215 4.63007 36.1788
RightToes  2.32829e-010 0 -3.6325e-017
Spine  19.7398 4.91495 17.9509
Spine1  18.7692 23.8911 -42.0118
HEad  5.92537 11.1349 0.866351
LeftShoulder1  0.697951 1.01447 -21.6549
LeftArm  10.749 11.5307 -43.5602
LeftForeArm  133.442 -73.275 -142.027
LeftHand  -1.63146 -3.43339 21.5137
RightShoulder  0.0398566 -4.09054 -16.5128
RightArm  -42.3541 36.1031 23.5655
RightForeArm  51.3823 77.2593 52.3857
RightHand  -2.18674 6.97194 -20.6411
LeftUpLeg  -35.8424 -18.1118 -9.14953
LeftLeg  33.3601 -16.7476 -11.235
LeftFoot  -0.832677 2.33302 -24.9318
LeftToes  -5.54824e-011 -8.71001e-011 8.3852e-012
330
root  -5.99074 34.9536 8.45259 -178.27 -15.1281 163.839
RightUpLeg  0.0854495 -4.65588 -24.8189
RightLeg  53.9466 -11.4053 -16.6588
RightFoot  -25.6781 4.42428 35.4875
RightToes  2.32829e-010 0 -3.6325e-017
Spine  19.1405 5.26944 15.6897
Spine1  19.1611 23.4076 -40.5296
HEad  2.6659 9.43365 -1.46253
LeftShoulder1  0.767333 0.701968 -20.9579
LeftArm  10.3499 10.8281 -43.2203
LeftForeArm  132.957 -73.7368 -140.802
LeftHand  -1.57321 -3.33644 20.9882
RightShoulder  -5.23302e-005 -3.42316 -14.011
RightArm  -31.2537 34.1604 33.9892
RightForeArm  59.0632 78.3438 60.2868
RightHand  -2.16705 6.86399 -20.6328
LeftUpLeg  -34.515 -17.3128 -6.79779
LeftLeg  27.5125 -15.0285 -8.08051
LeftFoot  0.841225 2.78614 -25.7874
LeftToes  -5.54824e-011 -8.71001e-011 8.3852e-012
331
root  -5.98132 35.894 8.887 -178.044 -10.5902 166.113
RightUpLeg  -1.23762 -1.63095 -22.5329
RightLeg  47.7746 -11.8813 -13.9711
RightFoot  -23.6169 3.61684 34.1445
RightToes  2.32829e-010 0 -3.6325e-017
Spine  17.6281 5.39539 12.887
Spine1  19.9218 21.7166 -36.5782
HEad  -1.04382 7.97159 -3.59708
LeftShoulder1  0.718941 0.737765 -19.4414
LeftArm  10.4806 11.8942 -43.6114
LeftForeArm  137.18 -73.2186 -142.765
LeftHand  -1.43972 -3.39015 19.1529
RightShoulder  0.00286784 -2.63771 -10.2763
RightArm  -21.3005 32.3199 43.5604
RightForeArm  58.47 78.3477 61.0694
RightHand  -2.15076 6.58168 -20.9431
LeftUpLeg  -32.0276 -16.1849 -3.16968
LeftLeg  19.3106 -12.8534 -4.47097
LeftFoot  2.87374 3.12174 -24.8283
LeftToes  -5.54824e-011 -8.71001e-011 8.3852e-012
332
root  -6.15575 36.8503 9.15812 -177.468 -5.93001 169.722
RightUpLeg  -2.35218 -0.219272 -19.6121
RightLeg  40.8366 -11.75 -10.9711
RightFoot  -19.8514 2.32064 32.157
RightToes  2.32829e-010 0 -3.6325e-017
Spine  15.1893 5.28657 11.1177
Spine1  20.5703 19.3103 -31.5278
HEad  -4.27729 6.79089 -4.816
LeftShoulder1  0.626414 0.923586 -17.6299
LeftArm  11.5583 13.9199 -44.4062
LeftForeArm  139.803 -72.7782 -144.177
LeftHand  -1.35823 -3.57694 17.74
RightShoulder  0.105633 -1.14869 -4.71985
RightArm  -14.0876 28.3879 49.4797
RightForeArm  54.9012 77.9903 58.442
RightHand  -1.9969 6.05977 -20.3437
LeftUpLeg  -29.2342 -12.6517 0.224785
LeftLeg  12.5276 -12.0631 -1.66805
LeftFoot  3.57254 3.18781 -24.1928
LeftToes  -5.54824e-011 -8.71001e-011 8.3852e-012
333
root  -6.51804 37.6626 9.29665 -176.583 -1.02663 173.358
RightUpLeg  -3.77079 -0.830536 -17.4768
RightLeg  34.7766 -9.63179 -7.37593
RightFoot  -14.6464 0.791733 30.2572
RightToes  2.32829e-010 0 -3.6325e-017
Spine  13.1467 4.89229 9.56774
Spine1  20.3633 16.2161 -25.9151
HEad  -6.48961 7.3482 -6.13057
LeftShoulder1  0.646389 0.766848 -16.8953
LeftArm  13.8391 15.8437 -43.4731
LeftForeArm  139.469 -72.5142 -144.678
LeftHand  -1.39075 -3.76354 17.7922
RightShoulder  0.319736 -0.014761 0.948273
RightArm  -9.1885 22.331 52.8926
RightForeArm  53.755 77.9107 58.1931
RightHand  -1.84418 5.69323 -19.4425
LeftUpLeg  -27.5672 -8.9145 3.25727
LeftLeg  11.8554 -12.0552 -1.29972
LeftFoot  1.71045 2.92963 -25.3938
LeftToes  -5.54824e-011 -8.71001e-011 8.3852e-012
334
root  -6.99594 38.2705 9.42275 -176.278 4.22287 175.82
RightUpLeg  -5.12178 -1.60483 -16.7539
RightLeg  30.6648 -6.56125 -4.40828
RightFoot  -9.1603 -0.632876 29.1517
RightToes  2.32829e-010 0 -3.6325e-017
Spine  12.7251 4.30058 6.32776
Spine1  19.6483 12.5215 -19.3526
HEad  -8.5778 10.0796 -8.2906
LeftShoulder1  0.773391 0.244615 -17.0367
LeftArm  16.071 16.9199 -41.7799
LeftForeArm  137.696 -72.5438 -144.329
LeftHand  -1.41914 -3.71745 18.2347
RightShoulder  0.486074 0.214924 5.33431
RightArm  -6.66099 15.5825 54.9442
RightForeArm  54.0251 78.1107 60.9518
RightHand  -1.76773 5.46026 -19.0445
LeftUpLeg  -26.5374 -9.38253 6.41638
LeftLeg  17.7366 -10.7364 -3.43625
LeftFoot  -1.92196 2.18893 -25.9177
LeftToes  -5.54824e-011 -8.71001e-011 8.3852e-012
